<svg width="9" height="10" viewBox="0 0 9 10" fill="none" xmlns="http://www.w3.org/2000/svg">
<path fill-rule="evenodd" clip-rule="evenodd" d="M3.40472 0.926824C3.29531 1.02006 3.2406 1.06669 3.18217 1.10585C3.04824 1.19561 2.89783 1.25791 2.73966 1.28914C2.67065 1.30277 2.599 1.30848 2.45571 1.31992C2.09567 1.34865 1.91564 1.36301 1.76546 1.41606C1.41808 1.53876 1.14484 1.812 1.02214 2.15938C0.969093 2.30957 0.95473 2.48959 0.925994 2.84963C0.91456 2.99292 0.908846 3.06457 0.895219 3.13358C0.86399 3.29175 0.801689 3.44217 0.711925 3.57609C0.672766 3.63452 0.626145 3.68922 0.532903 3.79864C0.298634 4.07355 0.181495 4.21098 0.11281 4.3547C-0.0460668 4.68712 -0.0460668 5.07349 0.11281 5.40591C0.181499 5.54963 0.298634 5.68707 0.532903 5.96198C0.626131 6.07138 0.672766 6.1261 0.711925 6.1845C0.801689 6.31843 0.86399 6.46885 0.895219 6.62704C0.908846 6.69604 0.91456 6.7677 0.925994 6.91098C0.95473 7.27102 0.969093 7.45105 1.02214 7.60124C1.14484 7.94862 1.41808 8.22187 1.76546 8.34456C1.91564 8.39758 2.09567 8.41195 2.45571 8.44071C2.599 8.45212 2.67065 8.45787 2.73966 8.47148C2.89783 8.50271 3.04824 8.56502 3.18217 8.65479C3.2406 8.69392 3.2953 8.74055 3.40472 8.83378C3.67963 9.06807 3.81706 9.1852 3.96078 9.25389C4.2932 9.41275 4.67957 9.41275 5.01199 9.25389C5.15571 9.1852 5.29315 9.06807 5.56806 8.83378C5.67745 8.74055 5.73218 8.69392 5.79058 8.65479C5.92451 8.56502 6.07493 8.50271 6.23312 8.47148C6.30212 8.45787 6.37378 8.45212 6.51706 8.44071C6.8771 8.41195 7.05713 8.39758 7.20732 8.34456C7.5547 8.22187 7.82795 7.94862 7.95064 7.60124C8.00366 7.45105 8.01803 7.27102 8.04679 6.91098C8.0582 6.7677 8.06395 6.69604 8.07756 6.62704C8.10879 6.46885 8.1711 6.31843 8.26087 6.1845C8.3 6.1261 8.34663 6.07138 8.43985 5.96198C8.67415 5.68707 8.79128 5.54963 8.85997 5.40591C9.01883 5.07349 9.01883 4.68712 8.85997 4.3547C8.79128 4.21098 8.67415 4.07355 8.43985 3.79864C8.34663 3.68922 8.3 3.63452 8.26087 3.57609C8.1711 3.44217 8.10879 3.29175 8.07756 3.13358C8.06395 3.06457 8.0582 2.99292 8.04679 2.84963C8.01803 2.48959 8.00366 2.30957 7.95064 2.15938C7.82795 1.812 7.5547 1.53876 7.20732 1.41606C7.05713 1.36301 6.8771 1.34865 6.51706 1.31992C6.37378 1.30848 6.30212 1.30277 6.23312 1.28914C6.07493 1.25791 5.92451 1.19561 5.79058 1.10585C5.73218 1.06669 5.67745 1.02007 5.56806 0.926824C5.29315 0.692555 5.15571 0.57542 5.01199 0.506731C4.67957 0.347854 4.2932 0.347854 3.96078 0.506731C3.81706 0.575416 3.67963 0.692555 3.40472 0.926824ZM6.45128 3.92027C6.59406 3.77748 6.59406 3.54597 6.45128 3.40317C6.3085 3.26038 6.07695 3.26038 5.93417 3.40317L3.7551 5.58225L3.03858 4.86575C2.89579 4.72297 2.66428 4.72297 2.52148 4.86575C2.37869 5.00853 2.37869 5.24004 2.52148 5.38286L3.49654 6.35792C3.63933 6.5007 3.87084 6.5007 4.01366 6.35792L6.45128 3.92027Z" fill="white"/>
</svg>
