<svg width="27" height="26" viewBox="0 0 27 26" fill="none" xmlns="http://www.w3.org/2000/svg">
<path d="M13.5 26C6.33176 26 0.5 20.1682 0.5 13C0.5 5.83176 6.33176 0 13.5 0C20.6682 0 26.5 5.83176 26.5 13C26.5 20.1682 20.6682 26 13.5 26Z" fill="#EFB832"/>
<g opacity="0.2">
<path d="M17.3521 14.1432C17.2181 13.7515 17.0014 13.4217 16.7029 13.1536C16.4652 12.916 16.1815 12.7306 15.8517 12.5966C15.5218 12.4626 15.104 12.359 14.5984 12.2867L14.5009 12.2719L13.2832 12.0857C13.0465 12.0552 12.8481 12.003 12.6879 11.9307C12.6209 11.9011 12.5582 11.8681 12.4991 11.8324C12.4173 11.7828 12.3441 11.728 12.278 11.6679C12.164 11.5547 12.0848 11.4311 12.0378 11.2971C11.9917 11.1631 11.9682 11.0238 11.9682 10.8794C11.9682 10.4973 12.1049 10.17 12.3782 9.89674C12.4156 9.85932 12.4556 9.82448 12.4991 9.79315C12.7707 9.5886 13.1562 9.48678 13.655 9.48678C13.9256 9.48678 14.2076 9.51116 14.5009 9.56077C14.5992 9.57733 14.6985 9.59647 14.7995 9.61821C15.2016 9.70611 15.5732 9.91497 15.9135 10.2448L17.2748 8.89843C16.8004 8.43455 16.2799 8.10467 15.7125 7.90886C15.3487 7.78353 14.944 7.69736 14.5001 7.65297C14.252 7.62687 13.9909 7.61469 13.7168 7.61469C13.2781 7.61469 12.8717 7.65907 12.4991 7.7487C12.3642 7.78089 12.2337 7.81832 12.1075 7.8627C11.6331 8.02723 11.231 8.25697 10.9012 8.55028C10.5713 8.84445 10.318 9.1952 10.1431 9.60252C9.96728 10.0098 9.88025 10.4616 9.88025 10.9568C9.88025 11.895 10.1431 12.6174 10.6688 13.1222C10.9168 13.3598 11.2101 13.553 11.5504 13.7027C11.8194 13.8202 12.1344 13.9142 12.4991 13.983C12.5974 14.0021 12.6984 14.0196 12.8037 14.0352L14.1188 14.2362C14.2667 14.258 14.3938 14.2815 14.5009 14.3059C14.5957 14.3285 14.675 14.3511 14.7376 14.3755C14.8716 14.4268 14.9952 14.5043 15.1092 14.607C15.3355 14.8341 15.4495 15.1388 15.4495 15.52C15.4495 15.9639 15.2842 16.3042 14.9543 16.5409C14.8272 16.6332 14.6758 16.7072 14.5009 16.7628C14.2224 16.8524 13.8838 16.8968 13.4843 16.8968C13.1449 16.8968 12.8159 16.8664 12.4991 16.8054C12.345 16.7758 12.1944 16.7393 12.0457 16.6958C11.5922 16.5618 11.1901 16.3198 10.8394 15.9691L9.44678 17.3607C9.98293 17.9081 10.5782 18.2868 11.2336 18.4983C11.6235 18.6245 12.0457 18.7124 12.5 18.7628C12.8081 18.7977 13.1319 18.8151 13.4696 18.8151C13.8281 18.8151 14.1719 18.7863 14.5009 18.728C14.7011 18.6932 14.8961 18.6471 15.0858 18.5905C15.5862 18.4417 16.0188 18.225 16.3852 17.9412C16.7517 17.6575 17.038 17.3094 17.2443 16.8968C17.4506 16.4843 17.5533 16.0099 17.5533 15.4738C17.5532 14.9787 17.4862 14.5357 17.3521 14.1432Z" fill="white"/>
<path d="M14.5009 7.68864V9.56074C14.2076 9.51113 13.9256 9.48675 13.655 9.48675C13.1563 9.48675 12.7707 9.58857 12.4991 9.79312V7.68864C12.4991 7.13772 12.95 6.68774 13.5 6.68774C13.7751 6.68774 14.0257 6.80002 14.2068 6.98192C14.3808 7.15513 14.4914 7.39188 14.5001 7.65294C14.5009 7.66513 14.5009 7.67645 14.5009 7.68864Z" fill="white"/>
<path d="M14.5009 12.2719V14.3059C14.3939 14.2815 14.2668 14.258 14.1189 14.2363L12.8038 14.0352C12.6985 14.0195 12.5975 14.0022 12.4991 13.983V11.8324C12.5583 11.8681 12.621 11.9012 12.688 11.9307C12.8482 12.003 13.0466 12.0552 13.2833 12.0856L14.5009 12.2719Z" fill="white"/>
<path d="M13.4844 16.8969C13.8839 16.8969 14.2225 16.8525 14.5009 16.7629V18.742C14.5009 19.2921 14.051 19.7429 13.5 19.7429C12.9569 19.7429 12.5105 19.3034 12.5 18.7629C12.4991 18.7559 12.4991 18.749 12.4991 18.742V16.8055C12.816 16.8664 13.1449 16.8969 13.4844 16.8969Z" fill="white"/>
</g>
<g opacity="0.5">
<path d="M13.5 24.0009C7.43411 24.0009 2.49915 19.0659 2.49915 13C2.49915 6.93405 7.43406 1.99908 13.5 1.99908C19.5659 1.99908 24.5009 6.934 24.5009 13C24.5009 19.0659 19.5659 24.0009 13.5 24.0009ZM13.5 4.80409C8.98081 4.80409 5.30415 8.48075 5.30415 13C5.30415 17.5192 8.98081 21.1959 13.5 21.1959C18.0193 21.1959 21.6959 17.5192 21.6959 13C21.6959 8.48075 18.0192 4.80409 13.5 4.80409Z" fill="#AE8132"/>
</g>
<path d="M9.84375 4.17749C9.86701 4.2366 9.88722 4.29032 9.90403 4.33846C9.92099 4.3865 9.93328 4.43221 9.94084 4.47542C9.94846 4.51843 9.95049 4.56018 9.94678 4.60039C9.94328 4.64046 9.93201 4.68251 9.91307 4.72603C9.88783 4.78412 9.85299 4.8349 9.80861 4.87847C9.76423 4.92184 9.70603 4.95784 9.63423 4.98603C9.56257 5.01421 9.49529 5.02762 9.43252 5.02619C9.36976 5.02477 9.30938 5.01162 9.25113 4.98628C9.20771 4.96719 9.17095 4.94428 9.14094 4.91727C9.11082 4.89041 9.08411 4.85831 9.06111 4.82129C9.0377 4.78427 9.01602 4.74243 8.9956 4.69571C8.97504 4.64879 8.9533 4.59593 8.93004 4.53682C8.90689 4.47781 8.88683 4.42423 8.86997 4.37604C8.85291 4.3278 8.84041 4.2823 8.83214 4.23934C8.82401 4.19663 8.82157 4.15499 8.82533 4.11477C8.82884 4.07461 8.84021 4.03266 8.85905 3.98914C8.88439 3.93105 8.91943 3.88016 8.96452 3.83634C9.00946 3.79262 9.06781 3.75672 9.13972 3.72853C9.21152 3.7002 9.2785 3.68694 9.34066 3.68862C9.40266 3.69019 9.46294 3.7036 9.52103 3.72879C9.56455 3.74773 9.60132 3.77088 9.63133 3.7978C9.66134 3.82481 9.6881 3.85675 9.71207 3.89347C9.73589 3.93023 9.75803 3.97208 9.77844 4.0187C9.79876 4.06552 9.82075 4.11853 9.84375 4.17749ZM9.60239 4.2724C9.57913 4.21339 9.55871 4.16495 9.54125 4.12711C9.52362 4.08928 9.50748 4.05856 9.4928 4.03484C9.47812 4.01113 9.46406 3.99295 9.45035 3.98051C9.43664 3.96766 9.42155 3.9572 9.405 3.94907C9.37986 3.93613 9.35183 3.92897 9.32106 3.92688C9.29018 3.9249 9.25804 3.93064 9.22447 3.94395C9.19096 3.957 9.16328 3.97497 9.14211 3.99727C9.12083 4.01981 9.10473 4.04429 9.09402 4.07125C9.08752 4.08867 9.08345 4.10665 9.08218 4.12518C9.08076 4.14372 9.08274 4.16667 9.08812 4.19404C9.09361 4.22136 9.10305 4.25473 9.11651 4.29423C9.13012 4.33374 9.14845 4.38305 9.17176 4.44211C9.19492 4.50112 9.21498 4.54971 9.23204 4.5877C9.249 4.62594 9.26479 4.65646 9.27921 4.67961C9.29364 4.70277 9.3076 4.72059 9.32116 4.73319C9.33497 4.74598 9.35005 4.75624 9.36676 4.76457C9.39286 4.77681 9.4216 4.78437 9.45278 4.78681C9.48381 4.78935 9.51606 4.78397 9.54978 4.77066C9.58324 4.75746 9.61061 4.73953 9.63164 4.71643C9.65256 4.69342 9.66794 4.66864 9.67754 4.64224C9.68414 4.62492 9.6881 4.60694 9.68953 4.58841C9.69085 4.56977 9.68907 4.54712 9.68384 4.52036C9.67871 4.4937 9.66967 4.46059 9.65672 4.42078C9.64362 4.38102 9.62559 4.33146 9.60239 4.2724Z" fill="#EFB832"/>
<path d="M11.0663 4.51952L10.3415 3.87384L10.5591 4.65999L10.3091 4.7292L9.95447 3.4483L10.1777 3.3866L10.9019 4.0306L10.6848 3.24624L10.935 3.17712L11.2895 4.45783L11.0663 4.51952Z" fill="#EFB832"/>
<path d="M11.5562 4.41574L11.3651 3.10051L12.2314 2.97467L12.2646 3.20374L11.6552 3.29231L11.6999 3.60065L12.219 3.52539L12.2522 3.75421L11.7332 3.82967L11.7797 4.14934L12.3893 4.06078L12.4226 4.2897L11.5562 4.41574Z" fill="#EFB832"/>
<path d="M14.015 3.33649C14.0147 3.3926 14.0046 3.44567 13.9844 3.49599C13.9643 3.54642 13.9356 3.59039 13.8981 3.62823C13.8606 3.66601 13.8144 3.69576 13.7596 3.71725C13.7047 3.73898 13.6431 3.74959 13.5748 3.74934L13.3189 3.74822L13.317 4.24852L13.0576 4.2476L13.0627 2.91846L13.5779 2.92049C13.6463 2.92074 13.708 2.93186 13.7627 2.95385C13.8174 2.97574 13.8632 3.00595 13.9004 3.04394C13.9376 3.08212 13.9661 3.12641 13.9857 3.17683C14.0055 3.22746 14.0151 3.28037 14.015 3.33649ZM13.7555 3.33557C13.7558 3.28083 13.7388 3.23655 13.7047 3.20288C13.6706 3.16911 13.6237 3.152 13.564 3.15195L13.3213 3.15093L13.32 3.51478L13.5627 3.5158C13.6223 3.516 13.6694 3.49975 13.7037 3.46694C13.7379 3.43414 13.7553 3.39032 13.7555 3.33557Z" fill="#EFB832"/>
<path d="M14.1948 4.26789L14.3438 2.94733L15.2136 3.04533L15.1877 3.27532L14.5756 3.20641L14.5408 3.51618L15.062 3.57483L15.036 3.80492L14.5147 3.74612L14.4786 4.067L15.0907 4.13591L15.0648 4.366L14.1948 4.26789Z" fill="#EFB832"/>
<path d="M16.0451 4.57781L15.7164 3.66431L15.5324 4.45913L15.2795 4.40053L15.5795 3.10571L15.8049 3.15797L16.1341 4.06964L16.3177 3.27679L16.5706 3.3354L16.2707 4.63011L16.0451 4.57781Z" fill="#EFB832"/>
<path d="M17.2685 4.97799L17.0552 4.03108L16.7743 4.79686L16.5306 4.70738L16.9884 3.45984L17.2056 3.53962L17.4195 4.48491L17.6999 3.72075L17.9434 3.81023L17.4856 5.05802L17.2685 4.97799Z" fill="#EFB832"/>
<path d="M18.4325 4.91264L18.189 5.40014L17.9585 5.28517L18.202 4.79747L18.1948 3.91779L18.4469 4.04362L18.4298 4.6338L18.8879 4.26371L19.14 4.38954L18.4325 4.91264Z" fill="#EFB832"/>
<path d="M17.3187 21.9704C17.2954 21.9112 17.2752 21.8576 17.2584 21.8094C17.2415 21.7614 17.2292 21.7157 17.2216 21.6725C17.214 21.6295 17.212 21.5877 17.2157 21.5475C17.2192 21.5075 17.2304 21.4654 17.2494 21.4219C17.2746 21.3638 17.3095 21.313 17.3538 21.2694C17.3982 21.226 17.4564 21.19 17.5282 21.1619C17.5999 21.1337 17.6672 21.1203 17.7299 21.1217C17.7927 21.1231 17.8531 21.1363 17.9113 21.1616C17.9547 21.1807 17.9915 21.2036 18.0215 21.2306C18.0516 21.2575 18.0783 21.2896 18.1013 21.3266C18.1247 21.3636 18.1464 21.4054 18.1668 21.4522C18.1874 21.4991 18.2091 21.552 18.2324 21.6111C18.2556 21.6701 18.2756 21.7236 18.2925 21.7718C18.3095 21.82 18.322 21.8655 18.3303 21.9085C18.3384 21.9512 18.3409 21.9928 18.3371 22.0331C18.3336 22.0733 18.3222 22.1152 18.3034 22.1587C18.2781 22.2168 18.243 22.2677 18.1979 22.3115C18.153 22.3553 18.0946 22.3912 18.0227 22.4193C17.9509 22.4477 17.8839 22.4609 17.8218 22.4593C17.7598 22.4577 17.6995 22.4443 17.6414 22.419C17.5979 22.4001 17.5611 22.3769 17.5311 22.35C17.5011 22.323 17.4743 22.2911 17.4504 22.2544C17.4266 22.2176 17.4044 22.1757 17.384 22.1291C17.3637 22.0823 17.3417 22.0293 17.3187 21.9704ZM17.5601 21.8754C17.5833 21.9344 17.6037 21.9829 17.6212 22.0207C17.6388 22.0585 17.655 22.0893 17.6696 22.113C17.6843 22.1367 17.6984 22.1549 17.7121 22.1674C17.7258 22.1802 17.7409 22.1907 17.7574 22.1988C17.7826 22.2118 17.8106 22.2189 17.8414 22.221C17.8723 22.223 17.9044 22.2173 17.938 22.2039C17.9714 22.1909 17.9991 22.1729 18.0203 22.1506C18.0417 22.1281 18.0577 22.1036 18.0684 22.0766C18.0749 22.0592 18.079 22.0412 18.0803 22.0227C18.0817 22.0042 18.0798 21.9812 18.0744 21.9539C18.0689 21.9265 18.0594 21.8932 18.046 21.8537C18.0324 21.8142 18.014 21.7649 17.9907 21.7058C17.9676 21.6468 17.9475 21.5982 17.9305 21.5602C17.9135 21.522 17.8977 21.4915 17.8833 21.4683C17.8689 21.4452 17.8549 21.4273 17.8413 21.4147C17.8275 21.4019 17.8124 21.3917 17.7957 21.3834C17.7696 21.3711 17.7409 21.3636 17.7097 21.3611C17.6787 21.3586 17.6464 21.364 17.6127 21.3773C17.5793 21.3905 17.5519 21.4084 17.5309 21.4315C17.5099 21.4545 17.4945 21.4793 17.4849 21.5057C17.4783 21.523 17.4743 21.541 17.4729 21.5595C17.4716 21.5782 17.4734 21.6008 17.4786 21.6276C17.4837 21.6542 17.4928 21.6873 17.5057 21.7271C17.5189 21.7668 17.5369 21.8164 17.5601 21.8754Z" fill="#EFB832"/>
<path d="M16.0962 21.6283L16.821 22.274L16.6035 21.4879L16.8534 21.4186L17.2081 22.6995L16.9849 22.7612L16.2606 22.1172L16.4778 22.9016L16.2276 22.9707L15.873 21.69L16.0962 21.6283Z" fill="#EFB832"/>
<path d="M15.6063 21.7321L15.7974 23.0473L14.9311 23.1731L14.8978 22.9441L15.5073 22.8555L15.4626 22.5471L14.9435 22.6224L14.9103 22.3936L15.4293 22.3181L15.3828 21.9985L14.7732 22.087L14.7399 21.8581L15.6063 21.7321Z" fill="#EFB832"/>
<path d="M13.1476 22.8113C13.1478 22.7552 13.158 22.7022 13.1782 22.6518C13.1983 22.6014 13.227 22.5574 13.2645 22.5196C13.302 22.4819 13.3482 22.4521 13.403 22.4306C13.4579 22.4089 13.5195 22.3983 13.5878 22.3985L13.8436 22.3997L13.8455 21.8994L14.1049 21.9003L14.0998 23.2294L13.5847 23.2274C13.5162 23.2271 13.4546 23.216 13.3998 23.194C13.3452 23.1721 13.2993 23.1419 13.2621 23.1039C13.225 23.0657 13.1964 23.0215 13.1768 22.971C13.1571 22.9204 13.1475 22.8674 13.1476 22.8113ZM13.4071 22.8122C13.4068 22.867 13.4238 22.9113 13.4579 22.9449C13.492 22.9787 13.539 22.9958 13.5986 22.9959L13.8414 22.9969L13.8427 22.633L13.5999 22.632C13.5404 22.6318 13.4933 22.6481 13.459 22.6809C13.4246 22.7137 13.4073 22.7575 13.4071 22.8122Z" fill="#EFB832"/>
<path d="M12.9677 21.8798L12.8187 23.2004L11.9489 23.1024L11.9748 22.8724L12.5869 22.9413L12.6217 22.6316L12.1005 22.5729L12.1265 22.3428L12.6477 22.4016L12.6839 22.0807L12.0717 22.0118L12.0976 21.7817L12.9677 21.8798Z" fill="#EFB832"/>
<path d="M11.1175 21.5701L11.4462 22.4836L11.6302 21.6887L11.8831 21.7473L11.5831 23.0422L11.3577 22.9899L11.0285 22.0782L10.8449 22.8711L10.592 22.8125L10.8919 21.5178L11.1175 21.5701Z" fill="#EFB832"/>
<path d="M9.89403 21.1698L10.1073 22.1167L10.3882 21.3509L10.6318 21.4404L10.174 22.688L9.95684 22.6082L9.7429 21.6628L9.46254 22.427L9.21899 22.3375L9.67679 21.0897L9.89403 21.1698Z" fill="#EFB832"/>
<path d="M8.73 21.2352L8.97349 20.7477L9.20399 20.8626L8.96049 21.3504L8.96765 22.23L8.71557 22.1042L8.73269 21.514L8.27454 21.8841L8.02246 21.7583L8.73 21.2352Z" fill="#EFB832"/>
<path d="M17.3521 13.9278C17.2181 13.5361 17.0014 13.2063 16.7029 12.9382C16.4652 12.7006 16.1815 12.5152 15.8517 12.3812C15.5218 12.2472 15.104 12.1436 14.5984 12.0713L14.5009 12.0565L13.2832 11.8702C13.0465 11.8397 12.8481 11.7875 12.6879 11.7153C12.6209 11.6857 12.5582 11.6526 12.4991 11.617C12.4173 11.5674 12.3441 11.5125 12.278 11.4524C12.164 11.3393 12.0848 11.2157 12.0378 11.0817C11.9917 10.9477 11.9682 10.8084 11.9682 10.6639C11.9682 10.2818 12.1049 9.95459 12.3782 9.68129C12.4156 9.64386 12.4556 9.60903 12.4991 9.57769C12.7707 9.37315 13.1562 9.27133 13.655 9.27133C13.9256 9.27133 14.2076 9.29571 14.5009 9.34532C14.5992 9.36187 14.6985 9.38102 14.7995 9.40275C15.2016 9.49065 15.5732 9.69952 15.9135 10.0294L17.2748 8.68298C16.8004 8.21909 16.2799 7.88922 15.7125 7.69341C15.3487 7.56808 14.944 7.4819 14.5001 7.43752C14.252 7.41142 13.9909 7.39923 13.7168 7.39923C13.2781 7.39923 12.8717 7.44361 12.4991 7.53329C12.3642 7.56549 12.2337 7.60291 12.1075 7.6473C11.6331 7.81178 11.231 8.04156 10.9012 8.33487C10.5713 8.62905 10.318 8.9798 10.1431 9.38711C9.96728 9.79443 9.88025 10.2462 9.88025 10.7414C9.88025 11.6796 10.1431 12.402 10.6688 12.9068C10.9168 13.1444 11.2101 13.3376 11.5504 13.4873C11.8194 13.6048 12.1344 13.6988 12.4991 13.7676C12.5974 13.7867 12.6984 13.8042 12.8037 13.8198L14.1188 14.0208C14.2667 14.0426 14.3938 14.0661 14.5009 14.0905C14.5957 14.1131 14.675 14.1357 14.7376 14.1601C14.8716 14.2114 14.9952 14.2889 15.1092 14.3916C15.3355 14.6188 15.4495 14.9234 15.4495 15.3046C15.4495 15.7485 15.2842 16.0888 14.9543 16.3255C14.8272 16.4178 14.6758 16.4918 14.5009 16.5474C14.2224 16.637 13.8838 16.6814 13.4843 16.6814C13.1449 16.6814 12.8159 16.651 12.4991 16.59C12.345 16.5604 12.1944 16.5239 12.0457 16.4803C11.5922 16.3463 11.1901 16.1043 10.8394 15.7536L9.44678 17.1453C9.98293 17.6927 10.5782 18.0713 11.2336 18.2828C11.6235 18.409 12.0457 18.4969 12.5 18.5474C12.8081 18.5822 13.1319 18.5996 13.4696 18.5996C13.8281 18.5996 14.1719 18.5709 14.5009 18.5126C14.7011 18.4778 14.8961 18.4316 15.0858 18.3751C15.5862 18.2262 16.0188 18.0096 16.3852 17.7258C16.7517 17.4421 17.038 17.0939 17.2443 16.6814C17.4506 16.2688 17.5533 15.7945 17.5533 15.2584C17.5532 14.7633 17.4862 14.3203 17.3521 13.9278Z" fill="#CC9322"/>
<path d="M14.5009 7.47331V9.34541C14.2076 9.2958 13.9256 9.27142 13.655 9.27142C13.1563 9.27142 12.7707 9.37324 12.4991 9.57778V7.47331C12.4991 6.92238 12.95 6.47241 13.5 6.47241C13.7751 6.47241 14.0257 6.58469 14.2068 6.76659C14.3808 6.9398 14.4914 7.17649 14.5001 7.43761C14.5009 7.4498 14.5009 7.46112 14.5009 7.47331Z" fill="#CC9322"/>
<path d="M14.5009 12.0565V14.0905C14.3939 14.0661 14.2668 14.0426 14.1189 14.0209L12.8038 13.8198C12.6985 13.8041 12.5975 13.7868 12.4991 13.7676V11.617C12.5583 11.6527 12.621 11.6858 12.688 11.7153C12.8482 11.7876 13.0466 11.8398 13.2833 11.8703L14.5009 12.0565Z" fill="#CC9322"/>
<path d="M13.4844 16.6816C13.8839 16.6816 14.2225 16.6372 14.5009 16.5475V18.5267C14.5009 19.0768 14.051 19.5276 13.5 19.5276C12.9569 19.5276 12.5105 19.0881 12.5 18.5476C12.4991 18.5406 12.4991 18.5336 12.4991 18.5267V16.5902C12.816 16.6511 13.1449 16.6816 13.4844 16.6816Z" fill="#CC9322"/>
<path d="M3.84973 13.4855C4.11784 13.4855 4.33519 13.2681 4.33519 13C4.33519 12.7319 4.11784 12.5145 3.84973 12.5145C3.58161 12.5145 3.36426 12.7319 3.36426 13C3.36426 13.2681 3.58161 13.4855 3.84973 13.4855Z" fill="#EFB832"/>
<path d="M23.0531 13.4855C23.3212 13.4855 23.5386 13.2681 23.5386 13C23.5386 12.7319 23.3212 12.5145 23.0531 12.5145C22.785 12.5145 22.5676 12.7319 22.5676 13C22.5676 13.2681 22.785 13.4855 23.0531 13.4855Z" fill="#EFB832"/>
<path opacity="0.06" d="M13.5061 25.9877C16.8351 25.9877 20.1642 24.7206 22.6985 22.1863C27.7672 17.1176 27.7672 8.8702 22.6985 3.80158C20.1641 1.26714 16.8351 0 13.5061 0V25.9877Z" fill="#040000"/>
</svg>
