<svg width="24" height="24" viewBox="0 0 24 24" fill="none" xmlns="http://www.w3.org/2000/svg">
<path d="M12 13C12 14.657 9.314 16 6 16C2.686 16 0 14.657 0 13C0 11.343 2.686 10 6 10C9.314 10 12 11.343 12 13ZM12 18.5V20.5C12 22.495 9.421 24 6 24C2.579 24 0 22.495 0 20.5V18.5C0 20.471 2.5 22 6 22C9.5 22 12 20.471 12 18.5ZM12 14.5V16.5C12 18.495 9.421 20 6 20C2.579 20 0 18.495 0 16.5V14.5C0 16.471 2.5 18 6 18C9.5 18 12 16.471 12 14.5ZM11 6C9.491 6 8.175 6.84 7.494 8.076C11.17 8.459 13.761 10.255 13.984 12.661C14.616 11.953 15 11.021 15 10C15 7.794 13.206 6 11 6ZM21 6C21 5.448 21.448 5 22 5H24C24 2.243 21.757 0 19 0H5C2.243 0 0 2.243 0 5V9.586C1.301 8.684 3.159 8.112 5.338 8.015C6.159 5.679 8.387 4 11 4C14.309 4 17 6.691 17 10C17 12.216 15.792 14.156 14 15.195V20H19C19.342 20 19.677 19.965 20 19.899V21C20 21.552 20.448 22 21 22C21.552 22 22 21.552 22 21V18.997C23.214 18.084 24 16.632 24 15H22C21.448 15 21 14.552 21 14C21 13.448 21.448 13 22 13H24V7H22C21.448 7 21 6.552 21 6Z" fill="white"/>
</svg>
