<svg width="18" height="19" viewBox="0 0 18 19" fill="none" xmlns="http://www.w3.org/2000/svg">
<path d="M9.70557 14.6205L8.32816 13.1554C8.19551 13.013 8.0786 12.8601 7.97594 12.7005C7.76985 12.9425 7.46259 13.0969 7.11936 13.0969C6.49886 13.0969 5.99525 12.5933 5.99525 11.9728C5.99525 11.3523 6.49886 10.8487 7.11936 10.8487C7.24601 10.8487 7.36742 10.8697 7.48133 10.9086C7.48507 10.7925 7.49482 10.6763 7.5113 10.5594C7.6447 9.61442 8.19401 8.78632 9.01911 8.28872C9.69133 7.88329 10.4857 7.76413 11.2419 7.91551V7.10166C11.2419 5.03554 9.56093 3.35462 7.49482 3.35462H1.49881C1.49881 2.53027 2.17328 1.85581 2.99763 1.85581H6.32499C5.8079 0.964014 4.84866 0.356995 3.74703 0.356995H2.99763C1.34144 0.356246 0 1.69768 0 3.35387V15.3444C0 17.0006 1.34144 18.342 2.99763 18.342H3.74703C4.84866 18.342 5.8079 17.735 6.32499 16.8432H2.99763C2.17328 16.8432 1.49881 16.1687 1.49881 15.3444H7.49407C8.32066 15.3444 9.08506 15.0753 9.70557 14.6205ZM7.11936 5.60209C7.73987 5.60209 8.24347 6.10569 8.24347 6.7262C8.24347 7.34671 7.73987 7.85031 7.11936 7.85031C6.49886 7.85031 5.99525 7.34671 5.99525 6.7262C5.99525 6.10569 6.49886 5.60209 7.11936 5.60209ZM2.44456 12.1939C1.97843 12.349 1.49881 11.9773 1.49881 11.4857C1.49881 11.1739 1.67642 10.8697 1.97244 10.7715C2.56747 10.5729 2.99763 10.0101 2.99763 9.34913C2.99763 8.68815 2.56747 8.12535 1.97244 7.92675C1.67717 7.82783 1.49881 7.52432 1.49881 7.21257C1.49881 6.72096 1.97843 6.3485 2.44456 6.50438C3.63537 6.90156 4.49644 8.02642 4.49644 9.34913C4.49644 10.6718 3.63537 11.7967 2.44456 12.1939ZM18 14.595C18 15.0086 17.6643 15.3444 17.2506 15.3444H14.3879C13.1476 15.3444 11.962 14.8318 11.1122 13.928L9.42004 12.1279C8.7201 11.3733 8.85949 10.1345 9.79325 9.57095C10.4003 9.20524 11.1834 9.30866 11.7335 9.75456L13.4601 11.0945C13.7868 11.3485 14.2575 11.2893 14.5115 10.9618C14.7656 10.6351 14.7064 10.1645 14.3789 9.91043L12.7399 8.63794V7.09941C12.7399 6.29754 12.5586 5.53689 12.2356 4.85568C13.7539 4.91264 15.1972 5.54364 16.2704 6.62653L17.6006 7.96947C17.8576 8.24675 18 8.61021 18 8.98866V14.595Z" fill="#001EA1"/>
</svg>
