<svg width="18" height="19" viewBox="0 0 18 19" fill="none" xmlns="http://www.w3.org/2000/svg">
<path d="M18 16.8495L16.5 18.3495L15 16.8495V1.84949C15 1.02074 15.6713 0.349487 16.5 0.349487C17.3288 0.349487 18 1.02074 18 1.84949V16.8495ZM13.5 1.84949V16.0995C13.5 17.34 12.4905 18.3495 11.25 18.3495H2.25C1.0095 18.3495 0 17.34 0 16.0995V1.84949H1.5V0.349487H3V1.84949H4.5V0.349487H6V1.84949H7.5V0.349487H9V1.84949H10.5V0.349487H12V1.84949H13.5ZM7.5 11.5995H3V13.0995H7.5V11.5995ZM10.5 8.59949H3V10.0995H10.5V8.59949ZM10.5 5.59949H3V7.09949H10.5V5.59949Z" fill="#001EA1"/>
</svg>
