<svg width="13" height="15" viewBox="0 0 13 15" fill="none" xmlns="http://www.w3.org/2000/svg">
<path d="M7.79823 7.3542C7.79823 8.90156 7.80128 10.4489 7.79823 11.9963C7.79518 13.5483 6.60583 14.44 5.1344 13.9957C3.9237 13.63 2.71301 13.2613 1.50384 12.8926C0.543212 12.5995 0.00495561 11.8806 0.00343081 10.8716C-0.0011436 8.52513 -0.0011436 6.17864 0.00343081 3.83214C0.00495561 2.83399 0.540162 2.10737 1.47792 1.82042C2.72673 1.43782 3.97555 1.0614 5.22588 0.686513C6.57839 0.280774 7.78756 1.18636 7.7967 2.61956C7.80585 4.19777 7.79823 5.77598 7.79823 7.3542ZM3.91455 7.32951C3.90083 7.67817 4.18292 7.98517 4.5321 8.0006C4.8767 8.01449 5.18014 7.72908 5.19539 7.3758C5.20911 7.02714 4.92702 6.72014 4.57784 6.70471C4.23171 6.69082 3.92828 6.97777 3.91455 7.32951Z" fill="#001EA1"/>
<path d="M10.7107 8.02224C10.174 8.02224 9.70282 8.02687 9.23014 8.01916C9.09138 8.01607 8.94347 7.9991 8.81691 7.94819C8.55007 7.84174 8.39759 7.53165 8.44486 7.24471C8.4967 6.92536 8.75287 6.69704 9.1112 6.68624C9.52595 6.6739 9.94069 6.68315 10.3554 6.68161C10.453 6.68161 10.5521 6.68161 10.7077 6.68161C10.6238 6.57516 10.575 6.51808 10.5308 6.45637C10.3158 6.16017 10.3371 5.80842 10.5857 5.56621C10.8403 5.31629 11.2139 5.30086 11.4868 5.56467C11.8818 5.94573 12.2553 6.34838 12.6396 6.74178C12.7097 6.81274 12.789 6.87599 12.8515 6.95313C13.0635 7.21077 13.0406 7.56559 12.7768 7.84174C12.3758 8.26137 11.9672 8.67173 11.5555 9.08056C11.2505 9.38293 10.8845 9.40762 10.607 9.15924C10.3173 8.90006 10.3112 8.52672 10.5903 8.17806C10.6131 8.1472 10.6375 8.11635 10.7107 8.02224Z" fill="#001EA1"/>
<path d="M10.1542 1.45636C10.5384 1.45636 10.9273 1.41625 11.3069 1.46407C12.2371 1.57978 12.9217 2.35268 12.9888 3.32306C13.0056 3.56836 13.004 3.81519 12.9918 4.06049C12.972 4.46005 12.7037 4.72695 12.3407 4.73003C11.9641 4.73312 11.6942 4.45851 11.6744 4.04352C11.6653 3.85993 11.6744 3.6748 11.6714 3.48968C11.6637 3.01606 11.432 2.77539 10.9578 2.76768C10.3295 2.75842 9.70284 2.77231 9.07462 2.75842C8.72391 2.75071 8.47537 2.50233 8.44335 2.17218C8.41285 1.85592 8.61108 1.55509 8.91451 1.47024C8.9999 1.44556 9.09444 1.44556 9.1844 1.44401C9.50766 1.44093 9.83245 1.44247 10.1557 1.44247C10.1542 1.4471 10.1542 1.45173 10.1542 1.45636Z" fill="#001EA1"/>
<path d="M10.1374 13.2629C9.80346 13.2629 9.46953 13.2675 9.1356 13.2613C8.72847 13.2552 8.44334 12.9836 8.43876 12.6087C8.43419 12.2277 8.70713 11.9515 9.12035 11.9438C9.7074 11.9346 10.2944 11.9438 10.8815 11.9392C11.4518 11.9361 11.6668 11.714 11.6698 11.137C11.6713 10.9735 11.6637 10.8084 11.6729 10.6449C11.6973 10.2453 11.9611 9.97839 12.3255 9.97531C12.6914 9.97222 12.9766 10.2345 12.9873 10.631C12.9964 10.9873 12.9964 11.3514 12.9369 11.7016C12.789 12.5625 12.0038 13.2289 11.1407 13.2582C10.8068 13.269 10.4729 13.2598 10.1389 13.2598C10.1374 13.2613 10.1374 13.2613 10.1374 13.2629Z" fill="#001EA1"/>
</svg>
