<svg width="26" height="19" viewBox="0 0 26 19" fill="none" xmlns="http://www.w3.org/2000/svg">
<path fill-rule="evenodd" clip-rule="evenodd" d="M0.25 1.5C0.25 0.671573 0.921573 0 1.75 0H24.25C25.0784 0 25.75 0.671573 25.75 1.5C25.75 2.32843 25.0784 3 24.25 3H1.75C0.921573 3 0.25 2.32843 0.25 1.5Z" fill="white"/>
<path fill-rule="evenodd" clip-rule="evenodd" d="M2.5 9.5C2.5 8.67157 3.17157 8 4 8H22C22.8284 8 23.5 8.67157 23.5 9.5C23.5 10.3284 22.8284 11 22 11H4C3.17157 11 2.5 10.3284 2.5 9.5Z" fill="white"/>
<path fill-rule="evenodd" clip-rule="evenodd" d="M5.5 17.5C5.5 16.6716 6.17157 16 7 16H19C19.8284 16 20.5 16.6716 20.5 17.5C20.5 18.3284 19.8284 19 19 19H7C6.17157 19 5.5 18.3284 5.5 17.5Z" fill="white"/>
</svg>
