<svg width="27" height="31" viewBox="0 0 27 31" fill="none" xmlns="http://www.w3.org/2000/svg">
<path d="M25.4178 1.05367L24.7059 0.882804L25.4178 0.711939L25.5887 0L25.7595 0.711939L26.4715 0.882804L25.7595 1.05367L25.5887 1.76561L25.4178 1.05367ZM1.18343 7.94524L0.528442 7.80285L1.18343 7.63198L1.35429 6.977L1.49668 7.63198L2.18014 7.80285L1.49668 7.94524L1.35429 8.6287L1.18343 7.94524Z" fill="#FDCD60"/>
<path d="M23.6238 11.4765L21.7727 10.9924L23.6238 10.4798L24.1364 8.62872L24.649 10.4798L26.5 10.9924L24.649 11.4765L24.1364 13.3275L23.6238 11.4765ZM1.66758 29.7021L0.5 29.4173L1.66758 29.1326L1.92388 27.965L2.20865 29.1326L3.37623 29.4173L2.20865 29.7021L1.92388 30.8697L1.66758 29.7021Z" fill="#FDCD60"/>
<path d="M2.26562 5.1267C2.26562 5.20617 2.29263 5.28238 2.34069 5.33856C2.38876 5.39475 2.45395 5.42632 2.52192 5.42632C2.5899 5.42632 2.65509 5.39475 2.70315 5.33856C2.75122 5.28238 2.77822 5.20617 2.77822 5.1267C2.77822 5.04724 2.75122 4.97103 2.70315 4.91484C2.65509 4.85865 2.5899 4.82709 2.52192 4.82709C2.45395 4.82709 2.38876 4.85865 2.34069 4.91484C2.29263 4.97103 2.26562 5.04724 2.26562 5.1267Z" fill="#5546CB"/>
<path d="M25.2755 25.1344C25.1347 25.1344 24.9971 25.0856 24.88 24.9942C24.7629 24.9027 24.6717 24.7727 24.6178 24.6207C24.5639 24.4686 24.5498 24.3013 24.5773 24.1398C24.6047 23.9784 24.6726 23.8301 24.7721 23.7137C24.8717 23.5973 24.9985 23.518 25.1366 23.4859C25.2747 23.4538 25.4179 23.4703 25.548 23.5333C25.6781 23.5963 25.7893 23.7029 25.8675 23.8398C25.9457 23.9767 25.9875 24.1376 25.9875 24.3022C25.9875 24.5229 25.9125 24.7346 25.779 24.8907C25.6454 25.0468 25.4644 25.1344 25.2755 25.1344ZM25.2755 23.936C25.2192 23.936 25.1642 23.9555 25.1173 23.9921C25.0705 24.0287 25.034 24.0807 25.0124 24.1415C24.9909 24.2023 24.9852 24.2693 24.9962 24.3338C25.0072 24.3984 25.0343 24.4577 25.0742 24.5043C25.114 24.5508 25.1647 24.5826 25.22 24.5954C25.2752 24.6082 25.3325 24.6016 25.3845 24.5765C25.4366 24.5513 25.481 24.5086 25.5123 24.4538C25.5436 24.3991 25.5603 24.3347 25.5603 24.2689C25.5532 24.1865 25.5201 24.1101 25.4675 24.0547C25.4148 23.9993 25.3464 23.9689 25.2755 23.9693V23.936Z" fill="#5546CB"/>
<path d="M23.1965 6.85785H3.86026C3.61857 6.85785 3.38678 6.97009 3.21588 7.16987C3.04498 7.36965 2.94897 7.64061 2.94897 7.92315V8.72213H24.0793V7.92315C24.0794 7.64629 23.9873 7.38025 23.8226 7.1814C23.6578 6.98255 23.4332 6.8665 23.1965 6.85785Z" fill="white"/>
<path d="M23.1966 6.19208H3.86035C3.46761 6.19208 3.09095 6.37446 2.81324 6.69911C2.53553 7.02376 2.37952 7.46407 2.37952 7.92319V21.8387C2.37952 22.2978 2.53553 22.7381 2.81324 23.0628C3.09095 23.3874 3.46761 23.5698 3.86035 23.5698H23.1966C23.5893 23.5698 23.966 23.3874 24.2437 23.0628C24.5214 22.7381 24.6774 22.2978 24.6774 21.8387V7.92319C24.6774 7.46407 24.5214 7.02376 24.2437 6.69911C23.966 6.37446 23.5893 6.19208 23.1966 6.19208ZM24.1079 21.8387V21.9386C24.1079 22.2034 24.0179 22.4575 23.8577 22.6448C23.6974 22.8321 23.4801 22.9373 23.2536 22.9373H3.83187C3.60529 22.9373 3.38799 22.8321 3.22777 22.6448C3.06755 22.4575 2.97755 22.2034 2.97755 21.9386V11.7516H24.0794L24.1079 21.8387ZM2.97755 11.0858V9.38798H24.0794V11.0525L2.97755 11.0858ZM2.94907 8.75546V7.92319C2.94907 7.64066 3.04508 7.36969 3.21598 7.16991C3.38687 6.97013 3.61866 6.85789 3.86035 6.85789H23.1966C23.4383 6.85789 23.6701 6.97013 23.841 7.16991C24.0119 7.36969 24.1079 7.64066 24.1079 7.92319V8.72217L2.94907 8.75546Z" fill="#5546CB"/>
<path d="M2.94897 11.7516V21.9052C2.94897 22.1701 3.03898 22.4241 3.1992 22.6114C3.35942 22.7987 3.57672 22.904 3.8033 22.904H23.2535C23.48 22.904 23.6973 22.7987 23.8576 22.6114C24.0178 22.4241 24.1078 22.1701 24.1078 21.9052V11.7516H2.94897ZM10.0399 21.1063H3.88873V20.4404H10.0399V21.1063ZM13.03 18.8092H3.88873V18.1434H13.03V18.8092ZM13.03 16.8451H3.88873V16.2125H13.03V16.8451ZM23.1111 21.1063H16.2195V16.1792H23.1111V21.1063ZM14.938 13.1831L15.3367 12.717L15.7923 13.2497L16.248 12.717L16.6467 13.1831L16.191 13.7157L16.6752 14.2817L16.2765 14.7477L15.7923 14.1818L15.3082 14.7477L14.9095 14.2817L15.3937 13.7157L14.938 13.1831ZM12.6883 13.1831L13.087 12.717L13.5426 13.2497L13.9983 12.717L14.3969 13.1831L13.9413 13.7157L14.4254 14.2817L14.0267 14.7477L13.5426 14.1818L13.0585 14.7477L12.6598 14.2817L13.1439 13.7157L12.6883 13.1831ZM10.4386 13.1831L10.8373 12.717L11.2929 13.2497L11.7485 12.717L12.1472 13.1831L11.6916 13.7157L12.1757 14.2817L11.777 14.7477L11.2929 14.1818L10.8088 14.7477L10.4101 14.2817L10.8942 13.7157L10.4386 13.1831ZM8.18884 13.1831L8.58753 12.717L9.04317 13.2497L9.49881 12.717L9.8975 13.1831L9.44186 13.7157L9.92597 14.2817L9.52729 14.7477L9.04317 14.1818L8.55905 14.7477L8.16037 14.2817L8.64448 13.7157L8.18884 13.1831ZM5.93912 13.1831L6.3378 12.717L6.79344 13.2497L7.24908 12.717L7.64777 13.1831L7.19213 13.7157L7.67625 14.2817L7.27756 14.7477L6.79344 14.1818L6.30933 14.7477L5.91064 14.2817L6.39476 13.7157L5.93912 13.1831ZM3.68939 13.1831L4.08808 12.717L4.54372 13.2497L4.99936 12.717L5.39804 13.1831L4.9424 13.7157L5.42652 14.2817L5.02784 14.7477L4.54372 14.1818L4.0596 14.7477L3.66091 14.2817L4.14503 13.7157L3.68939 13.1831Z" fill="#FDCD60"/>
<path d="M4.08814 14.7478L4.60073 14.1818L5.08485 14.7478L5.48354 14.2817L4.99942 13.7158L5.42658 13.1831L5.0279 12.717L4.60073 13.2497L4.14509 12.717L3.74641 13.1831L4.20205 13.7158L3.68945 14.2817L4.08814 14.7478ZM6.33787 14.7478L6.82198 14.1818L7.3061 14.7478L7.73326 14.2817L7.22067 13.7158L7.67631 13.1831L7.27762 12.717L6.82198 13.2497L6.39482 12.717L5.96766 13.1831L6.4233 13.7158L5.93918 14.2817L6.33787 14.7478ZM8.58759 14.7478L9.07171 14.1818L9.55583 14.7478L9.95451 14.2817L9.4704 13.7158L9.92604 13.1831L9.49887 12.717L9.07171 13.2497L8.61607 12.717L8.21738 13.1831L8.67302 13.7158L8.16043 14.2817L8.58759 14.7478ZM10.8088 14.7478L11.293 14.1818L11.7771 14.7478L12.2042 14.2817L11.6916 13.7158L12.1473 13.1831L11.7486 12.717L11.293 13.2497L10.8658 12.717L10.4386 13.1831L10.8943 13.7158L10.4102 14.2817L10.8088 14.7478ZM13.0586 14.7478L13.5427 14.1818L14.0268 14.7478L14.4255 14.2817L13.9414 13.7158L14.397 13.1831L13.9983 12.717L13.5427 13.2497L13.087 12.717L12.6884 13.1831L13.144 13.7158L12.6599 14.2817L13.0586 14.7478ZM15.2798 14.7478L15.7639 14.1818L16.2765 14.7478L16.6752 14.2817L16.1911 13.7158L16.6183 13.1831L16.2196 12.717L15.7639 13.2497L15.3368 12.717L14.9381 13.1831L15.3652 13.7158L14.8811 14.2817L15.2798 14.7478Z" fill="#F97744"/>
<path d="M3.88892 16.2125H13.0017V16.8783H3.88892V16.2125ZM3.88892 18.1434H13.0017V18.8092H3.88892V18.1434ZM3.88892 20.4404H10.0116V21.1063H3.88892V20.4404Z" fill="#5546CB"/>
<path d="M16.7892 16.8451H22.5132V20.4348H16.7892V16.8451Z" fill="white"/>
<path d="M16.2196 21.1063H23.1112V16.1793H16.2196V21.1063ZM16.7892 16.8451H22.5416V20.4405H16.7892V16.8451Z" fill="#5546CB"/>
<path d="M2.97754 9.38794H24.0794V11.0661H2.97754V9.38794Z" fill="#AFBCF3"/>
</svg>
