<svg width="18" height="19" viewBox="0 0 18 19" fill="none" xmlns="http://www.w3.org/2000/svg">
<path d="M9 0.349487C6.61305 0.349487 4.32387 1.2977 2.63604 2.98553C0.948211 4.67335 0 6.96254 0 9.34949C0 11.7364 0.948211 14.0256 2.63604 15.7134C4.32387 17.4013 6.61305 18.3495 9 18.3495H18V9.34949C17.9974 6.96333 17.0484 4.67564 15.3611 2.98838C13.6738 1.30111 11.3862 0.352068 9 0.349487ZM9 4.09949C9.2225 4.09949 9.44001 4.16547 9.62502 4.28908C9.81002 4.4127 9.95422 4.5884 10.0394 4.79397C10.1245 4.99954 10.1468 5.22574 10.1034 5.44396C10.06 5.66219 9.95283 5.86265 9.7955 6.01998C9.63816 6.17732 9.43771 6.28446 9.21948 6.32787C9.00125 6.37128 8.77505 6.349 8.56948 6.26385C8.36391 6.1787 8.18821 6.03451 8.0646 5.8495C7.94098 5.6645 7.875 5.44699 7.875 5.22449C7.875 4.92612 7.99353 4.63997 8.2045 4.42899C8.41548 4.21801 8.70163 4.09949 9 4.09949ZM10.5 14.5995H9V9.34949H7.5V7.84949H9C9.39782 7.84949 9.77936 8.00752 10.0607 8.28883C10.342 8.57013 10.5 8.95166 10.5 9.34949V14.5995Z" fill="#001EA1"/>
</svg>
