<svg width="24" height="24" viewBox="0 0 24 24" fill="none" xmlns="http://www.w3.org/2000/svg">
<path d="M5.50038 6.99989C7.43036 6.99989 9.00033 5.42992 9.00033 3.49995C9.00033 1.56998 7.43036 0 5.50038 0C3.57041 0 2.00044 1.56998 2.00044 3.49995C2.00044 5.42992 3.57041 6.99989 5.50038 6.99989ZM17.5002 16.9997C19.9812 16.9997 22.0001 14.9808 22.0001 12.4998C22.0001 10.0188 19.9812 7.99988 17.5002 7.99988C15.0192 7.99988 13.0003 10.0188 13.0003 12.4998C13.0003 14.9808 15.0192 16.9997 17.5002 16.9997ZM8.43334 18.6067C9.19333 19.3687 9.19333 20.6297 8.42034 21.4047L6.22137 23.6926C6.02538 23.8966 5.76338 23.9996 5.50038 23.9996C5.25039 23.9996 5.00139 23.9066 4.8074 23.7206C4.4094 23.3376 4.3964 22.7047 4.7794 22.3067L6.03538 20.9997H4.00041C1.79444 20.9997 0.000468536 19.2057 0.000468536 16.9997V15.9998C0.000468536 15.4468 0.448462 14.9998 1.00045 14.9998C1.55244 14.9998 2.00044 15.4468 2.00044 15.9998V16.9997C2.00044 18.1027 2.89742 18.9997 4.00041 18.9997H6.02938L4.7794 17.6927C4.3964 17.2947 4.4084 16.6617 4.8074 16.2788C5.20539 15.8968 5.83838 15.9078 6.22137 16.3058L8.43334 18.6067ZM23.9591 22.7167C23.1431 19.9397 20.4862 17.9987 17.5002 17.9987C14.5142 17.9987 11.8573 19.9387 11.0413 22.7167C10.9523 23.0196 11.0113 23.3456 11.2003 23.5986C11.3893 23.8506 11.6863 23.9986 12.0013 23.9986H23.0011C23.3161 23.9986 23.6131 23.8506 23.8021 23.5986C23.9901 23.3456 24.0481 23.0196 23.9591 22.7167ZM5.50038 7.99988C3.06642 7.99988 0.882455 9.46686 0.0634676 11.6488C-0.0515307 11.9558 -0.00853134 12.2988 0.178466 12.5688C0.365463 12.8388 0.672458 12.9998 1.00045 12.9998H10.0003C10.3283 12.9998 10.6353 12.8388 10.8223 12.5688C11.0093 12.2988 11.0513 11.9558 10.9373 11.6488C10.1193 9.46586 7.93435 7.99988 5.50038 7.99988Z" fill="#C8C8C8"/>
</svg>
