<svg width="18" height="19" viewBox="0 0 18 19" fill="none" xmlns="http://www.w3.org/2000/svg">
<path d="M9 16.1013C12.7293 16.1013 15.7518 13.0787 15.7518 9.34947V9.33597C15.7503 8.80782 15.6746 8.29844 15.5583 7.8048C15.448 7.82206 15.3392 7.84981 15.2267 7.84981C14.649 7.84981 14.0699 7.63075 13.6295 7.18964C12.7803 6.34041 12.7608 4.98029 13.5552 4.09805H15.7128L14.6903 5.06806C14.3977 5.36139 14.3977 5.83627 14.6903 6.12885C14.9836 6.42218 15.4585 6.42218 15.7511 6.12885L17.5898 4.34261C18.1367 3.79572 18.1367 2.90072 17.5898 2.35383L15.7511 0.567592C15.4577 0.274263 14.9829 0.274263 14.6903 0.567592C14.3977 0.860922 14.397 1.3358 14.6903 1.62838L15.7128 2.59839H9C5.27149 2.59764 2.24817 5.62021 2.24817 9.34947V9.36297C2.24892 9.89112 2.32544 10.4005 2.44172 10.8941C2.552 10.8769 2.66078 10.8491 2.77331 10.8491C3.35097 10.8491 3.93013 11.0682 4.3705 11.5093C5.21973 12.3585 5.23923 13.7187 4.44477 14.6009H2.28718L3.30971 13.6309C3.60229 13.3376 3.60229 12.8627 3.30971 12.5701C3.01638 12.2768 2.5415 12.2768 2.24892 12.5701L0.410174 14.3563C-0.136725 14.9032 -0.136725 15.7982 0.410174 16.3451L2.24892 18.1313C2.54225 18.4247 3.01713 18.4247 3.30971 18.1313C3.60229 17.838 3.60304 17.3631 3.30971 17.0706L2.28718 16.1005H9.00075L9 16.1013ZM9.81022 12.2002H9.60016V12.5003C9.60016 12.8319 9.33159 13.1005 9 13.1005C8.66841 13.1005 8.39984 12.8319 8.39984 12.5003V12.2002H8.2498C7.71565 12.2002 7.23852 11.9572 6.92194 11.5753C6.60835 11.1972 6.87467 10.6256 7.36606 10.6256H7.42307C7.59337 10.6256 7.74866 10.7058 7.86419 10.8311C7.96022 10.9354 8.09826 11.0007 8.25055 11.0007H9.82822C10.0368 11.0007 10.2273 10.8604 10.2678 10.6556C10.3151 10.417 10.1583 10.1942 9.9295 10.1477L7.83568 9.72832C7.00146 9.56103 6.4193 8.76731 6.54158 7.89858C6.65561 7.08836 7.37281 6.4987 8.19128 6.4987H8.40134V6.19862C8.40134 5.86703 8.66991 5.59845 9.0015 5.59845C9.33309 5.59845 9.60166 5.86703 9.60166 6.19862V6.4987H9.7517C10.2858 6.4987 10.763 6.74176 11.0796 7.12362C11.3931 7.50172 11.1268 8.07337 10.6354 8.07337H10.5784C10.4081 8.07337 10.2528 7.9931 10.1373 7.86782C10.0413 7.76354 9.90324 7.69827 9.75095 7.69827H8.17478C7.96622 7.69827 7.77567 7.83781 7.73441 8.04187C7.68639 8.28043 7.84394 8.50474 8.07125 8.5505L10.1658 8.96987C11 9.13641 11.5829 9.93163 11.4599 10.7996C11.3459 11.6098 10.6287 12.1987 9.81022 12.1987V12.2002Z" fill="#001EA1"/>
</svg>
