<svg width="16" height="22" viewBox="0 0 16 22" fill="none" xmlns="http://www.w3.org/2000/svg">
<path d="M15.5778 19.662V21.8495H0.409543V19.662C0.409543 17.5663 1.998 15.8645 3.98841 15.7472L6.30832 19.662L7.99368 17.037L9.67904 19.662L11.9989 15.7472C13.9894 15.8645 15.5778 17.5672 15.5778 19.662ZM3.67241 4.37305C4.96087 3.11917 6.64792 2.49966 8.41671 2.61341C11.7234 2.83567 14.3146 5.8238 14.3146 9.41569C14.3146 10.9644 13.102 12.2236 11.6105 12.2236H9.58298C9.37736 11.4982 8.73861 10.9644 7.97346 10.9644C7.04229 10.9644 6.28809 11.7476 6.28809 12.7145C6.28809 13.6813 7.04229 14.4645 7.97346 14.4645C8.42682 14.4645 8.8372 14.2763 9.13973 13.9736H11.6105C14.0307 13.9736 16 11.9287 16 9.41569C15.9992 4.90417 12.7161 1.14866 8.52457 0.867783C6.27967 0.716408 4.15021 1.50829 2.51962 3.09729C1.01375 4.56292 0.108706 6.5938 0 8.72531H1.68789C1.79154 7.06018 2.48675 5.52718 3.67241 4.37305ZM10.6136 10.4841C10.633 10.4797 10.6582 10.4744 10.6582 10.4744H11.7588C12.181 10.4744 12.5501 10.1524 12.5989 9.71669C12.6562 9.20306 12.6352 8.66494 12.5223 8.11456C12.1481 6.29543 10.7265 4.82805 8.97203 4.45355C5.99147 3.81742 3.36062 6.1773 3.36062 9.16194C3.36062 10.4473 3.84853 11.6163 4.64149 12.48C4.73503 10.6337 6.19287 9.16194 7.99452 9.16194C9.05883 9.16194 9.99589 9.68432 10.6136 10.4841Z" fill="#001EA1"/>
</svg>
