<svg width="15" height="16" viewBox="0 0 15 16" fill="none" xmlns="http://www.w3.org/2000/svg">
<path d="M9.07441 3.26967C9.07441 2.34053 8.75507 1.98317 7.84142 1.84916C5.70366 1.52754 3.57477 1.20591 1.44587 0.875354C0.558834 0.73241 0 1.18804 0 2.09038C0 4.23454 0 6.37871 0 8.52287C0 10.7206 0 12.9095 0 15.1072C0 15.5897 0.2395 15.8309 0.718501 15.8309C1.28621 15.8309 1.85391 15.822 2.42162 15.8398C2.61676 15.8488 2.66112 15.7862 2.66112 15.5986C2.65225 14.6337 2.65225 13.6689 2.65225 12.704C2.65225 11.8642 3.08689 11.4264 3.91184 11.4264C4.32875 11.4264 4.75453 11.4264 5.17144 11.4264C5.97864 11.4264 6.40442 11.8553 6.40442 12.6593C6.40442 13.6421 6.40442 14.6248 6.40442 15.6076C6.40442 15.7862 6.44877 15.8398 6.62618 15.8398C7.33581 15.8309 8.05431 15.822 8.76394 15.8398C9.03006 15.8488 9.07441 15.7684 9.07441 15.5182C9.06554 11.4354 9.07441 7.35252 9.07441 3.26967ZM2.395 3.42155C2.77643 3.35901 3.16673 3.35901 3.55702 3.42155C3.79653 3.45729 3.92071 3.65383 3.91184 3.89505C3.8941 4.1452 3.75217 4.31495 3.48606 4.33282C3.30865 4.34175 3.14012 4.33282 2.96271 4.33282C2.79417 4.33282 2.6345 4.34175 2.46597 4.33282C2.2176 4.30602 2.07567 4.17201 2.04906 3.92185C2.02245 3.66277 2.13776 3.46622 2.395 3.42155ZM3.47719 9.99699C3.31752 10.0059 3.14899 9.99699 2.98045 9.99699C2.81191 9.99699 2.65225 10.0059 2.48371 9.99699C2.22647 9.97912 2.0668 9.83617 2.04019 9.57709C2.01358 9.318 2.16437 9.09465 2.42162 9.07678C2.7853 9.04998 3.15786 9.04998 3.53041 9.08572C3.78766 9.11252 3.92071 9.318 3.90297 9.56816C3.88523 9.81831 3.73443 9.97912 3.47719 9.99699ZM3.47719 8.11191C3.31752 8.12084 3.14899 8.11191 2.98045 8.11191C2.81191 8.11191 2.65225 8.12084 2.48371 8.11191C2.22647 8.09404 2.0668 7.9511 2.04019 7.69201C2.01358 7.43292 2.16437 7.20957 2.42162 7.19171C2.7853 7.1649 3.15786 7.1649 3.53041 7.20064C3.78766 7.22744 3.92071 7.43292 3.90297 7.68308C3.88523 7.9243 3.73443 8.09404 3.47719 8.11191ZM3.45945 6.22683C3.29978 6.23577 3.13125 6.22683 2.96271 6.22683C2.79417 6.22683 2.6345 6.23577 2.46597 6.22683C2.20873 6.20003 2.05793 6.05709 2.04019 5.78906C2.02245 5.52998 2.1555 5.33343 2.41275 5.30663C2.77643 5.27089 3.14899 5.27089 3.51267 5.30663C3.76991 5.3245 3.90297 5.52104 3.90297 5.78013C3.91184 6.02135 3.71669 6.20896 3.45945 6.22683ZM5.51738 3.42155C5.89881 3.35901 6.29798 3.35901 6.6794 3.42155C6.9189 3.46622 7.04309 3.65383 7.02535 3.89505C7.00761 4.15414 6.86568 4.31495 6.59957 4.33282C6.4399 4.34175 6.27136 4.33282 6.10283 4.33282C5.93429 4.33282 5.77462 4.34175 5.60608 4.33282C5.34884 4.31495 5.18918 4.17201 5.16257 3.91292C5.13595 3.65383 5.26901 3.45729 5.51738 3.42155ZM5.51738 5.30663C5.89881 5.24409 6.29798 5.24409 6.6794 5.30663C6.9189 5.34236 7.04309 5.53891 7.02535 5.78013C7.00761 6.03922 6.85681 6.20003 6.59957 6.2179C6.43103 6.22683 6.27136 6.2179 6.10283 6.2179C5.92542 6.2179 5.74801 6.22683 5.57947 6.2179C5.3311 6.20003 5.18918 6.04815 5.16257 5.80693C5.13595 5.54785 5.26901 5.3513 5.51738 5.30663ZM5.52625 7.20064C5.90768 7.14704 6.30685 7.1381 6.68827 7.20064C6.92777 7.24531 7.05196 7.43292 7.03422 7.67414C7.01648 7.93323 6.86568 8.08511 6.60844 8.11191C6.44877 8.12084 6.28023 8.11191 6.1117 8.11191C5.94316 8.11191 5.78349 8.12084 5.61495 8.11191C5.35771 8.09404 5.19805 7.94216 5.17144 7.69201C5.13595 7.43292 5.26901 7.23638 5.52625 7.20064ZM7.02535 9.57709C6.99873 9.83617 6.84794 9.98805 6.5907 10.0059C6.42216 10.0149 6.26249 10.0059 6.09396 10.0059C5.92542 10.0059 5.76575 10.0149 5.59721 10.0059C5.33997 9.98805 5.18031 9.83617 5.16257 9.57709C5.13595 9.318 5.27788 9.13039 5.52625 9.08572C5.89881 9.03211 6.28023 9.03211 6.66166 9.08572C6.91003 9.12145 7.05196 9.318 7.02535 9.57709Z" fill="#001EA1"/>
<path d="M14.0152 7.52225C12.658 7.23636 11.3009 6.9594 9.95257 6.66458C9.71307 6.61098 9.67759 6.66458 9.67759 6.88793C9.68646 8.33524 9.68646 9.78255 9.68646 11.2299C9.68646 12.6772 9.68646 14.1245 9.67759 15.5718C9.67759 15.7862 9.72194 15.8577 9.9437 15.8488C11.221 15.8398 12.4984 15.8398 13.7846 15.8398C14.5563 15.8398 14.9998 15.3931 14.9998 14.6159C14.9998 12.6593 14.9998 10.7028 14.9998 8.74621C15.0087 8.05829 14.6805 7.65626 14.0152 7.52225ZM12.6758 13.9369C12.3564 13.9458 12.0282 13.9458 11.7089 13.9369C11.4339 13.9279 11.2477 13.7225 11.2477 13.4634C11.2477 13.2043 11.4339 13.0077 11.7089 12.9988C11.8774 12.9899 12.0371 12.9988 12.2057 12.9988C12.3653 12.9988 12.5161 12.9899 12.6758 12.9988C12.933 13.0167 13.1193 13.2132 13.1193 13.4544C13.137 13.7135 12.9508 13.9279 12.6758 13.9369ZM12.6847 12.0518C12.3564 12.0607 12.0194 12.0697 11.6912 12.0518C11.4339 12.0429 11.2565 11.8284 11.2565 11.5872C11.2565 11.3371 11.4339 11.1405 11.6912 11.1137C11.8508 11.1048 12.0194 11.1137 12.1879 11.1137C12.3564 11.1137 12.5161 11.1048 12.6847 11.1137C12.9508 11.1316 13.137 11.3371 13.137 11.5962C13.1193 11.8374 12.9419 12.0429 12.6847 12.0518ZM12.6935 10.1578C12.3653 10.1757 12.0282 10.1757 11.7 10.1578C11.4339 10.1488 11.2388 9.93443 11.2477 9.67535C11.2565 9.42519 11.4339 9.23758 11.6912 9.21971C11.8686 9.21078 12.046 9.21971 12.2145 9.21971C12.3742 9.21971 12.525 9.21078 12.6847 9.21971C12.9508 9.24651 13.1282 9.452 13.1282 9.69321C13.1282 9.93443 12.9508 10.1488 12.6935 10.1578Z" fill="#001EA1"/>
</svg>
