<svg width="25" height="24" viewBox="0 0 25 24" fill="none" xmlns="http://www.w3.org/2000/svg">
<path d="M24.5 12.0005C24.5 10.3718 23.7854 8.83533 22.5734 7.86975C22.7136 6.24509 22.1331 4.65349 20.9821 3.5006C19.8312 2.34972 18.2459 1.76677 16.7017 1.94306C14.686 -0.61713 10.3315 -0.66621 8.36289 1.908C6.73757 1.76777 5.14828 2.34772 3.99735 3.5006C2.84641 4.65249 2.26694 6.24509 2.44108 7.78461C-0.115993 9.80191 -0.166034 14.161 2.40606 16.1303C2.26594 17.7549 2.84641 19.3475 3.99735 20.4994C5.14828 21.6523 6.74358 22.2342 8.27782 22.0569C10.2945 24.6171 14.648 24.6662 16.6176 22.092C18.2369 22.2312 19.8302 21.6523 20.9821 20.4994C22.1321 19.3475 22.7126 17.7549 22.5384 16.2154C23.7854 15.1657 24.5 13.6292 24.5 12.0005ZM13.4911 17.0087V18.0103C13.4851 19.3205 11.4954 19.3195 11.4894 18.0103V17.0087H11.2212C9.90114 17.1339 7.45115 15.361 8.9864 14.139C9.46379 13.8615 10.0763 14.0258 10.3535 14.5046C10.5317 14.8131 10.8649 15.0054 11.2212 15.0054H13.4911C14.4889 15.0705 14.9342 13.4529 13.8473 13.2425L10.8029 12.7347C7.29903 12.0836 8.05364 6.97228 11.4884 6.99231V5.99067C11.4944 4.68053 13.4841 4.68153 13.4901 5.99067V6.99231H13.7583C14.8261 6.99231 15.823 7.56825 16.3584 8.49477C16.6356 8.97355 16.4715 9.58555 15.9941 9.86301C15.5137 10.1395 14.9012 9.97619 14.627 9.49741C14.4478 9.1879 14.1156 8.99659 13.7593 8.99659H11.4894C10.4916 8.93148 10.0453 10.5491 11.1331 10.7595L14.1766 11.2673C17.6815 11.9174 16.9268 17.0287 13.4911 17.0087Z" fill="#C8C8C8"/>
</svg>
