<svg width="18" height="19" viewBox="0 0 18 19" fill="none" xmlns="http://www.w3.org/2000/svg">
<path d="M15 4.09949C15 3.68699 14.6625 3.34949 14.25 3.34949H3.75C3.3375 3.34949 3 3.68699 3 4.09949V14.5995C3 16.6695 4.68 18.3495 6.75 18.3495H11.25C13.32 18.3495 15 16.6695 15 14.5995V4.09949ZM6.375 16.0995C5.7525 16.0995 5.25 15.597 5.25 14.9745C5.25 14.352 5.7525 13.8495 6.375 13.8495C6.9975 13.8495 7.5 14.352 7.5 14.9745C7.5 15.597 6.9975 16.0995 6.375 16.0995ZM6 9.34949C6 7.69199 7.3425 6.34949 9 6.34949C10.6575 6.34949 12 7.69199 12 9.34949C12 11.007 10.6575 12.3495 9 12.3495C7.3425 12.3495 6 11.007 6 9.34949ZM11.625 16.0995C11.0025 16.0995 10.5 15.597 10.5 14.9745C10.5 14.352 11.0025 13.8495 11.625 13.8495C12.2475 13.8495 12.75 14.352 12.75 14.9745C12.75 15.597 12.2475 16.0995 11.625 16.0995ZM10.5 9.34949C10.5 10.1745 9.825 10.8495 9 10.8495C8.175 10.8495 7.5 10.1745 7.5 9.34949C7.5 8.52449 8.175 7.84949 9 7.84949C9.825 7.84949 10.5 8.52449 10.5 9.34949ZM18 3.34949V4.09949C18 5.20199 17.3925 6.16199 16.5 6.67949V3.34949C16.5 2.52449 15.825 1.84949 15 1.84949H3C2.175 1.84949 1.5 2.52449 1.5 3.34949V6.67949C0.6075 6.16199 0 5.20199 0 4.09949V3.34949C0 1.69199 1.3425 0.349487 3 0.349487H15C16.6575 0.349487 18 1.69199 18 3.34949Z" fill="#001EA1"/>
</svg>
